User Type,Username,Date,Text
,vgtor2,2013-01-07T03:38Z,"Nicely done.  Thanks!

Format                           : Matroska
File size                        : 296 MiB
Duration                         : 21mn 21s
Overall bit rate                 : 1 939 Kbps
Encoded date                     : UTC 2013-01-05 23:13:26
Writing application              : mkvmerge v3.0.0 ('Hang up your Hang-Ups') built on Apr 19 2010 11:58:49
Writing library                  : libebml v0.7.7 + libmatroska v0.8.1

Video
ID                               : 1
Format                           : AVC
Format/Info                      : Advanced Video Codec
Format profile                   : High@L4.1
Format settings, CABAC           : Yes
Format settings, ReFrames        : 9 frames
Format settings, GOP             : M=6, N=46
Codec ID                         : V_MPEG4/ISO/AVC
Duration                         : 21mn 21s
Bit rate                         : 1 452 Kbps
Width                            : 1 280 pixels
Height                           : 720 pixels
Display aspect ratio             : 16:9
Frame rate                       : 23.976 fps
Color space                      : YUV
Chroma subsampling               : 4:2:0
Bit depth                        : 8 bits
Scan type                        : Progressive
Bits/(Pixel*Frame)               : 0.066
Stream size                      : 222 MiB (75%)
Writing library                  : x264 core 129 r2230 1cffe9f
Language                         : English
Matrix coefficients              : BT.709-5, BT.1361, IEC 61966-2-4 709, SMPTE RP177

Audio
ID                               : 2
Format                           : AC-3
Format/Info                      : Audio Coding 3
Mode extension                   : CM (complete main)
Codec ID                         : A_AC3
Duration                         : 21mn 21s
Bit rate mode                    : Constant
Bit rate                         : 448 Kbps
Channel(s)                       : 6 channels
Channel positions                : Front: L C R, Side: L R, LFE
Sampling rate                    : 48.0 KHz
Bit depth                        : 16 bits
Compression mode                 : Lossy
Stream size                      : 68.5 MiB (23%)"
,vladimito,2013-01-07T06:26Z,ยกExcelente! Gracias.
